<!DOCTYPE svg PUBLIC "-//W3C//DTD SVG 20010904//EN" "http://www.w3.org/TR/2001/REC-SVG-20010904/DTD/svg10.dtd">
<svg version="1.0" xmlns="http://www.w3.org/2000/svg" width="1600px" height="1130px" viewBox="0 0 16000 11300" preserveAspectRatio="xMidYMid meet">
<g id="layer101" fill="#6d6e71" stroke="none">
 <path d="M10045 9323 c-46 -5 -117 -25 -147 -39 -29 -15 -98 -77 -98 -89 0 -4 -8 -19 -18 -33 -39 -57 -42 -111 -42 -743 l0 -609 120 0 120 0 0 558 c0 314 4 583 10 617 12 75 43 108 104 109 41 1 87 -23 103 -54 4 -8 9 -288 11 -622 l3 -608 115 0 114 0 -2 643 c-3 608 -4 644 -22 682 -58 122 -139 173 -296 188 -25 2 -58 3 -75 0z"/>
 <path d="M2915 9305 c-105 -26 -177 -95 -214 -205 -21 -64 -22 -74 -19 -560 3 -532 -1 -489 52 -599 14 -32 65 -83 97 -97 101 -48 104 -49 209 -49 81 0 113 4 139 18 19 9 38 17 43 17 20 0 88 54 111 88 13 20 34 63 45 95 21 56 22 70 22 546 0 479 0 491 -22 548 -41 108 -108 171 -215 199 -65 17 -179 17 -248 -1z m171 -221 c69 -33 69 -32 72 -494 4 -445 -1 -500 -43 -540 -35 -33 -122 -31 -152 5 -41 47 -44 84 -41 528 3 398 4 424 22 454 19 31 66 62 94 63 8 0 29 -7 48 -16z"/>
 <path d="M3742 9305 c-84 -21 -155 -87 -198 -185 -18 -42 -19 -71 -19 -565 l0 -520 28 -59 c45 -95 109 -145 222 -175 95 -25 244 -2 317 50 95 68 138 183 138 372 l0 107 -120 0 -120 0 0 -114 c0 -101 -2 -117 -23 -147 -25 -38 -67 -50 -125 -38 -78 17 -82 42 -82 531 0 362 2 423 16 458 34 85 152 97 197 19 14 -25 17 -56 17 -165 l0 -134 120 0 120 0 0 133 c-1 263 -67 389 -230 432 -66 18 -185 18 -258 0z"/>
 <path d="M8260 9307 c-87 -23 -156 -81 -197 -165 l-28 -57 0 -530 0 -530 29 -54 c15 -30 46 -71 68 -92 126 -117 388 -117 506 1 67 67 69 70 92 159 20 76 21 101 18 548 -3 451 -4 470 -25 528 -12 33 -27 61 -32 63 -6 2 -11 8 -11 14 0 5 -13 23 -29 39 -16 16 -34 29 -39 29 -6 0 -12 5 -14 10 -12 37 -243 62 -338 37z m194 -234 c43 -32 46 -65 46 -520 0 -360 -2 -436 -15 -466 -19 -45 -44 -59 -106 -59 -41 1 -53 6 -74 29 l-24 28 -1 468 c0 312 4 475 11 488 29 56 110 72 163 32z"/>
 <path d="M10798 9305 c-98 -27 -170 -95 -204 -195 -17 -51 -19 -94 -22 -533 -3 -448 -2 -483 17 -547 18 -63 72 -160 90 -160 4 0 16 -8 27 -18 10 -10 52 -28 92 -41 136 -44 299 -12 386 75 69 69 89 132 94 302 l4 142 -121 0 -121 0 0 -120 c0 -117 -1 -120 -28 -151 -24 -27 -34 -31 -81 -31 -59 1 -78 12 -98 59 -18 45 -19 898 -1 940 34 75 137 90 188 26 18 -23 20 -40 20 -169 l0 -144 120 0 120 0 0 150 c0 127 -3 159 -21 212 -38 110 -110 180 -207 204 -71 17 -192 16 -254 -1z"/>
 <path d="M12780 9306 c-132 -34 -202 -115 -226 -265 -17 -107 -20 -829 -3 -948 27 -191 134 -287 334 -300 104 -7 202 23 269 82 25 22 46 43 46 48 0 4 9 20 19 35 11 15 27 66 36 114 14 75 16 147 12 530 -4 461 -7 497 -49 561 -10 14 -18 29 -18 32 0 4 -13 20 -29 36 -16 16 -32 29 -36 29 -3 0 -18 8 -32 18 -62 40 -222 54 -323 28z m187 -232 c8 -8 18 -14 22 -14 4 0 13 -23 19 -51 16 -68 17 -832 1 -894 -16 -63 -46 -87 -108 -87 -43 1 -55 5 -75 29 -35 40 -38 88 -34 560 l3 411 25 27 c14 15 34 31 45 36 26 11 84 2 102 -17z"/>
 <path d="M1850 8555 l0 -745 203 0 c283 0 362 18 433 97 55 61 74 141 74 311 -1 181 -19 246 -90 319 -33 34 -41 47 -30 51 31 11 77 73 98 134 20 58 22 81 22 279 0 165 3 226 15 258 l14 42 -132 -3 -132 -3 -5 -235 c-5 -194 -9 -242 -23 -275 -25 -56 -57 -77 -133 -83 l-64 -5 0 302 0 301 -125 0 -125 0 0 -745z m414 -103 c39 -35 46 -67 46 -196 0 -185 -19 -213 -147 -224 l-63 -5 0 228 0 228 73 -8 c45 -4 79 -13 91 -23z"/>
 <path d="M4360 8555 l0 -745 120 0 120 0 0 308 0 307 39 -80 c22 -44 58 -120 81 -170 23 -49 45 -97 49 -105 22 -43 33 -66 96 -202 l26 -58 125 0 c68 0 124 3 124 6 0 8 -150 319 -311 646 -8 16 0 40 52 171 12 28 28 70 35 92 8 22 21 54 29 72 8 17 15 36 15 42 0 6 9 26 20 46 11 20 20 40 20 46 0 6 7 25 15 42 8 18 21 50 29 72 7 22 23 64 35 93 27 67 61 156 61 159 0 2 -57 3 -127 3 l-128 0 -23 -53 c-12 -28 -22 -56 -22 -60 0 -5 -7 -23 -15 -40 -8 -18 -21 -50 -29 -72 -7 -22 -24 -65 -36 -95 -12 -30 -29 -73 -36 -95 -8 -22 -21 -54 -29 -72 -8 -17 -15 -38 -15 -46 0 -35 -20 -24 -49 28 l-31 55 0 225 0 225 -120 0 -120 0 0 -745z"/>
 <path d="M5448 9038 c-4 -236 -6 -269 -25 -323 -12 -33 -31 -94 -43 -135 -13 -41 -31 -103 -41 -137 -11 -35 -27 -91 -38 -125 -50 -171 -61 -209 -82 -278 -12 -41 -30 -99 -40 -128 -11 -30 -19 -65 -19 -78 l0 -25 127 3 127 3 14 50 c7 28 21 75 29 105 9 30 20 73 24 95 4 22 15 67 24 100 29 105 54 198 67 250 l12 50 9 -35 c5 -19 17 -66 27 -105 10 -38 28 -108 40 -155 11 -47 30 -116 40 -155 10 -38 26 -100 36 -137 l16 -68 120 0 c139 0 129 -17 83 135 -37 124 -53 179 -75 255 -10 36 -23 79 -28 95 -6 17 -20 64 -32 105 -43 148 -63 216 -76 255 -40 118 -44 153 -44 400 l0 245 -124 0 -125 0 -3 -262z"/>
 <path d="M6400 8555 l0 -745 198 0 c209 0 300 11 344 42 14 10 29 18 33 18 12 0 58 53 79 90 33 60 45 146 45 320 0 276 -34 366 -164 434 -43 22 -69 27 -173 33 l-122 6 0 274 0 273 -120 0 -120 0 0 -745z m404 -47 c17 -7 30 -24 36 -47 11 -40 14 -300 4 -350 -10 -48 -53 -73 -135 -79 l-69 -5 0 247 0 246 70 0 c38 0 81 -5 94 -12z"/>
 <path d="M7200 8555 l0 -745 209 0 c276 0 331 11 406 84 65 64 85 125 93 282 8 185 -26 305 -105 373 l-28 24 50 52 c69 71 76 105 85 400 4 132 10 248 14 258 8 16 -2 17 -117 17 l-126 0 -10 -37 c-6 -21 -11 -124 -11 -229 0 -234 -10 -279 -69 -312 -27 -15 -56 -22 -95 -22 l-56 0 0 300 0 300 -120 0 -120 0 0 -745z m416 -106 c27 -26 44 -102 44 -200 0 -166 -29 -208 -151 -217 l-69 -5 0 228 0 228 78 -7 c56 -5 83 -13 98 -27z"/>
 <path d="M8880 8555 l0 -745 218 0 c227 1 317 12 369 45 50 32 82 69 110 125 l28 55 0 525 0 525 -27 51 c-36 68 -78 109 -144 139 -54 25 -59 25 -304 25 l-250 0 0 -745z m418 514 c63 -22 62 -12 62 -512 0 -443 -1 -455 -20 -480 -25 -32 -75 -47 -152 -47 l-58 0 0 525 0 525 69 0 c37 0 82 -5 99 -11z"/>
 <path d="M11580 8665 l0 -635 -120 0 -120 0 0 -110 0 -110 370 0 370 0 0 110 0 110 -125 0 -125 0 0 635 0 635 -125 0 -125 0 0 -635z"/>
 <path d="M12160 8555 l0 -745 125 0 125 0 0 745 0 745 -125 0 -125 0 0 -745z"/>
 <path d="M13400 8555 l0 -745 155 0 155 0 5 28 c10 46 46 180 100 377 9 33 20 80 25 105 5 25 16 62 24 82 9 21 16 49 16 63 0 15 5 35 11 46 6 12 17 48 24 82 12 56 13 18 14 -360 l1 -423 115 0 115 0 0 745 0 745 -135 0 -134 0 -6 -37 c-4 -21 -15 -67 -25 -103 -17 -60 -27 -95 -80 -295 -11 -41 -29 -109 -40 -150 -11 -41 -29 -109 -40 -150 -37 -137 -59 -220 -68 -255 -7 -24 -10 131 -11 478 l-1 512 -110 0 -110 0 0 -745z"/>
 <path d="M3920 7085 l0 -395 575 0 575 0 0 395 0 395 -575 0 -575 0 0 -395z"/>
 <path d="M5670 7085 l0 -395 575 0 575 0 0 395 0 395 -575 0 -575 0 0 -395z"/>
 <path d="M7420 7085 l0 -395 575 0 575 0 0 395 0 395 -575 0 -575 0 0 -395z"/>
 <path d="M9180 7085 l0 -395 575 0 575 0 0 395 0 395 -575 0 -575 0 0 -395z"/>
 <path d="M10930 7085 l0 -395 575 0 575 0 0 395 0 395 -575 0 -575 0 0 -395z"/>
 <path d="M3920 5875 l0 -395 575 0 575 0 0 395 0 395 -575 0 -575 0 0 -395z"/>
 <path d="M9180 5875 l0 -395 575 0 575 0 0 395 0 395 -575 0 -575 0 0 -395z"/>
 <path d="M10930 5875 l0 -395 575 0 575 0 0 395 0 395 -575 0 -575 0 0 -395z"/>
 <path d="M5670 5865 l0 -395 575 0 575 0 0 395 0 395 -575 0 -575 0 0 -395z"/>
 <path d="M7420 5865 l0 -395 575 0 575 0 0 395 0 395 -575 0 -575 0 0 -395z"/>
 <path d="M3920 4650 l0 -390 575 0 575 0 0 390 0 390 -575 0 -575 0 0 -390z"/>
 <path d="M9180 4650 l0 -390 575 0 575 0 0 390 0 390 -575 0 -575 0 0 -390z"/>
 <path d="M10930 4650 l0 -390 575 0 575 0 0 390 0 390 -575 0 -575 0 0 -390z"/>
 <path d="M5670 4635 l0 -395 575 0 575 0 0 395 0 395 -575 0 -575 0 0 -395z"/>
 <path d="M7420 4635 l0 -395 575 0 575 0 0 395 0 395 -575 0 -575 0 0 -395z"/>
 <path d="M7420 3415 l0 -395 575 0 575 0 0 395 0 395 -575 0 -575 0 0 -395z"/>
 <path d="M3920 3375 l0 -395 575 0 575 0 0 395 0 395 -575 0 -575 0 0 -395z"/>
 <path d="M9180 3375 l0 -395 575 0 575 0 0 395 0 395 -575 0 -575 0 0 -395z"/>
 <path d="M7420 2195 l0 -395 575 0 575 0 0 395 0 395 -575 0 -575 0 0 -395z"/>
 </g>
<g id="layer102" fill="#ff301e" stroke="none">
 <path d="M3920 7085 l0 -395 575 0 575 0 0 395 0 395 -575 0 -575 0 0 -395z"/>
 <path d="M5670 7085 l0 -395 575 0 575 0 0 395 0 395 -575 0 -575 0 0 -395z"/>
 <path d="M9180 7085 l0 -395 575 0 575 0 0 395 0 395 -575 0 -575 0 0 -395z"/>
 <path d="M10930 7085 l0 -395 575 0 575 0 0 395 0 395 -575 0 -575 0 0 -395z"/>
 <path d="M3920 5875 l0 -395 575 0 575 0 0 395 0 395 -575 0 -575 0 0 -395z"/>
 <path d="M9180 5875 l0 -395 575 0 575 0 0 395 0 395 -575 0 -575 0 0 -395z"/>
 <path d="M10930 5875 l0 -395 575 0 575 0 0 395 0 395 -575 0 -575 0 0 -395z"/>
 <path d="M5670 5865 l0 -395 575 0 575 0 0 395 0 395 -575 0 -575 0 0 -395z"/>
 <path d="M3920 4650 l0 -390 575 0 575 0 0 390 0 390 -575 0 -575 0 0 -390z"/>
 <path d="M9180 4650 l0 -390 575 0 575 0 0 390 0 390 -575 0 -575 0 0 -390z"/>
 <path d="M10930 4650 l0 -390 575 0 575 0 0 390 0 390 -575 0 -575 0 0 -390z"/>
 <path d="M5670 4635 l0 -395 575 0 575 0 0 395 0 395 -575 0 -575 0 0 -395z"/>
 <path d="M3920 3375 l0 -395 575 0 575 0 0 395 0 395 -575 0 -575 0 0 -395z"/>
 <path d="M9180 3375 l0 -395 575 0 575 0 0 395 0 395 -575 0 -575 0 0 -395z"/>
 </g>
<g id="layer103" fill="#a82292" stroke="none">
 <path d="M3920 7085 l0 -395 575 0 575 0 0 395 0 395 -575 0 -575 0 0 -395z"/>
 <path d="M10930 7085 l0 -395 575 0 575 0 0 395 0 395 -575 0 -575 0 0 -395z"/>
 <path d="M3920 5875 l0 -395 575 0 575 0 0 395 0 395 -575 0 -575 0 0 -395z"/>
 <path d="M10930 5875 l0 -395 575 0 575 0 0 395 0 395 -575 0 -575 0 0 -395z"/>
 <path d="M3920 4650 l0 -390 575 0 575 0 0 390 0 390 -575 0 -575 0 0 -390z"/>
 <path d="M10930 4650 l0 -390 575 0 575 0 0 390 0 390 -575 0 -575 0 0 -390z"/>
 <path d="M3920 3375 l0 -395 575 0 575 0 0 395 0 395 -575 0 -575 0 0 -395z"/>
 </g>

</svg>